<?xml version="1.0" encoding="iso-8859-1"?>
<!-- Uploaded to: SVG Repo, www.svgrepo.com, Generator: SVG Repo Mixer Tools -->
<svg fill="#000000" height="800px" width="800px" version="1.1" id="Layer_1" xmlns="http://www.w3.org/2000/svg" xmlns:xlink="http://www.w3.org/1999/xlink" 
	 viewBox="0 0 512.21 512.21" xml:space="preserve">
<g>
	<g>
		<path d="M209.559,0.105c-6.982,0-11.636,4.655-11.636,11.636s-4.655,11.636-11.636,11.636c-19.782,0-34.909,15.127-34.909,34.909
			c0,6.982-4.655,11.636-11.636,11.636s-11.636,4.655-11.636,11.636s4.655,11.636,11.636,11.636
			c19.782,0,34.909-15.127,34.909-34.909c0-6.982,4.655-11.636,11.636-11.636c19.782,0,34.909-15.127,34.909-34.909
			C221.196,4.759,216.541,0.105,209.559,0.105z"/>
	</g>
</g>
<g>
	<g>
		<path d="M279.378,0.105c-19.782,0-34.909,15.127-34.909,34.909c0,6.982-4.655,11.636-11.636,11.636
			c-19.782,0-34.909,15.127-34.909,34.909c0,6.982,4.655,11.636,11.636,11.636c6.982,0,11.636-4.655,11.636-11.636
			s4.655-11.636,11.636-11.636c19.782,0,34.909-15.127,34.909-34.909c0-6.982,4.655-11.636,11.636-11.636
			c6.982,0,11.636-4.655,11.636-11.636S286.359,0.105,279.378,0.105z"/>
	</g>
</g>
<g>
	<g>
		<path d="M384.105,93.196c-19.782,0-34.909,15.127-34.909,34.909c0,6.982-4.655,11.636-11.636,11.636
			c-6.982,0-11.636,4.655-11.636,11.636c0,6.982,4.655,11.636,11.636,11.636c19.782,0,34.909-15.127,34.909-34.909
			c0-6.982,4.655-11.636,11.636-11.636s11.636-4.655,11.636-11.636S391.087,93.196,384.105,93.196z"/>
	</g>
</g>
<g>
	<g>
		<path d="M442.287,93.196c-6.982,0-11.636,4.655-11.636,11.636s-4.655,11.636-11.636,11.636c-19.782,0-34.909,15.127-34.909,34.909
			c0,6.982,4.655,11.636,11.636,11.636c6.982,0,11.636-4.655,11.636-11.636c0-6.982,4.655-11.636,11.636-11.636
			c19.782,0,34.909-15.127,34.909-34.909C453.923,97.85,449.269,93.196,442.287,93.196z"/>
	</g>
</g>
<g>
	<g>
		<path d="M510.941,495.814l-22.109-55.855c-31.418-77.964-46.545-159.418-46.545-242.036c0-6.982-4.655-11.636-11.636-11.636
			H314.287c-6.982,0-11.636,4.655-11.636,11.636v46.545c0,6.982,4.655,11.636,11.636,11.636h69.818
			c6.982,0,11.636-4.655,11.636-11.636s-4.655-11.636-11.636-11.636h-58.182v-23.273h93.091
			c1.164,82.618,17.455,162.909,47.709,239.709l16.291,39.564H345.705l-17.455-48.873c-32.582-91.927-48.873-188.509-48.873-286.255
			v-25.6c0-6.982-4.655-11.636-11.636-11.636H81.559c-6.982,0-11.636,4.655-11.636,11.636v25.6
			c0,97.745-16.291,194.327-48.873,286.255L1.269,496.978c-2.327,3.491-1.164,6.982,1.164,10.473
			c2.327,2.327,5.818,4.655,9.309,4.655h279.273c6.982,0,11.636-4.655,11.636-11.636s-4.655-11.636-11.636-11.636H28.032
			l15.127-41.891c32.582-94.255,50.036-193.164,50.036-293.236v-13.964h162.909v13.964c0,11.636,0,22.109,1.164,32.582H128.105
			c-6.982,0-11.636,4.655-11.636,11.636s4.655,11.636,11.636,11.636h130.327c4.655,81.455,20.945,160.582,48.873,237.382
			l19.782,57.018c1.164,4.655,5.818,8.145,10.473,8.145h162.909c3.491,0,6.982-2.327,9.309-4.655
			C512.105,505.123,513.269,499.305,510.941,495.814z"/>
	</g>
</g>
</svg>